<svg xmlns="http://www.w3.org/2000/svg" xmlns:xlink="http://www.w3.org/1999/xlink" width="60" zoomAndPan="magnify" viewBox="0 0 45 44.999999" height="60" preserveAspectRatio="xMidYMid meet" version="1.2"><defs><clipPath id="2861f47338"><path d="M 2.496094 2.445312 L 42.246094 2.445312 L 42.246094 42.195312 L 2.496094 42.195312 Z M 2.496094 2.445312 "/></clipPath></defs><g id="9a2a2027f4"><path style=" stroke:none;fill-rule:nonzero;fill:#2262ee;fill-opacity:1;" d="M 27.867188 13.550781 L 16.769531 13.550781 C 13.269531 13.550781 10.425781 16.394531 10.425781 19.890625 C 10.425781 23.390625 13.269531 26.234375 16.769531 26.234375 L 27.867188 26.234375 C 31.367188 26.234375 34.210938 23.390625 34.210938 19.890625 C 34.210938 16.394531 31.367188 13.550781 27.867188 13.550781 Z M 27.867188 24.648438 L 16.769531 24.648438 C 14.144531 24.648438 12.011719 22.515625 12.011719 19.890625 C 12.011719 17.269531 14.144531 15.136719 16.769531 15.136719 L 27.867188 15.136719 C 30.492188 15.136719 32.625 17.269531 32.625 19.890625 C 32.625 22.515625 30.492188 24.648438 27.867188 24.648438 Z M 27.867188 24.648438 "/><path style=" stroke:none;fill-rule:nonzero;fill:#2262ee;fill-opacity:1;" d="M 17.5625 16.722656 C 15.8125 16.722656 14.390625 18.144531 14.390625 19.890625 C 14.390625 21.640625 15.8125 23.0625 17.5625 23.0625 C 19.308594 23.0625 20.730469 21.640625 20.730469 19.890625 C 20.730469 18.144531 19.308594 16.722656 17.5625 16.722656 Z M 17.5625 21.476562 C 16.6875 21.476562 15.976562 20.765625 15.976562 19.890625 C 15.976562 19.019531 16.6875 18.304688 17.5625 18.304688 C 18.433594 18.304688 19.148438 19.019531 19.148438 19.890625 C 19.148438 20.765625 18.433594 21.476562 17.5625 21.476562 Z M 17.5625 21.476562 "/><path style=" stroke:none;fill-rule:nonzero;fill:#2262ee;fill-opacity:1;" d="M 27.074219 16.722656 C 25.328125 16.722656 23.902344 18.144531 23.902344 19.890625 C 23.902344 21.640625 25.328125 23.0625 27.074219 23.0625 C 28.824219 23.0625 30.246094 21.640625 30.246094 19.890625 C 30.246094 18.144531 28.824219 16.722656 27.074219 16.722656 Z M 27.074219 21.476562 C 26.199219 21.476562 25.488281 20.765625 25.488281 19.890625 C 25.488281 19.019531 26.199219 18.304688 27.074219 18.304688 C 27.949219 18.304688 28.660156 19.019531 28.660156 19.890625 C 28.660156 20.765625 27.949219 21.476562 27.074219 21.476562 Z M 27.074219 21.476562 "/><g clip-rule="nonzero" clip-path="url(#2861f47338)"><path style=" stroke:none;fill-rule:nonzero;fill:#2262ee;fill-opacity:1;" d="M 37.695312 16.460938 C 37.175781 14.589844 36.253906 12.867188 35.003906 11.367188 L 35.003906 7.058594 C 35.925781 6.730469 36.589844 5.859375 36.589844 4.828125 C 36.589844 3.515625 35.523438 2.449219 34.210938 2.449219 C 32.898438 2.449219 31.832031 3.515625 31.832031 4.828125 C 31.832031 5.859375 32.496094 6.730469 33.417969 7.058594 L 33.417969 9.71875 C 30.554688 7.1875 26.636719 5.621094 22.316406 5.621094 C 18 5.621094 14.082031 7.1875 11.21875 9.71875 L 11.21875 7.058594 C 12.136719 6.730469 12.804688 5.859375 12.804688 4.828125 C 12.804688 3.515625 11.738281 2.449219 10.425781 2.449219 C 9.113281 2.449219 8.046875 3.515625 8.046875 4.828125 C 8.046875 5.859375 8.710938 6.730469 9.632812 7.058594 L 9.632812 11.367188 C 8.382812 12.867188 7.457031 14.589844 6.941406 16.460938 C 4.265625 17.542969 2.496094 20.140625 2.496094 23.0625 L 2.496094 29.40625 C 2.496094 31.59375 4.273438 33.371094 6.460938 33.371094 C 8.644531 33.371094 10.425781 31.59375 10.425781 29.40625 L 10.425781 29.300781 C 11.566406 30.464844 12.910156 31.464844 14.410156 32.246094 C 14.523438 34.195312 15.324219 36.007812 16.714844 37.390625 C 17.554688 38.226562 18.578125 38.875 19.695312 39.265625 C 19.695312 39.265625 21.695312 41.792969 21.695312 41.792969 C 22.011719 42.191406 22.625 42.191406 22.941406 41.792969 L 24.941406 39.265625 C 27.972656 38.214844 30.039062 35.460938 30.230469 32.242188 C 31.730469 31.460938 33.074219 30.464844 34.210938 29.300781 L 34.210938 29.40625 C 34.210938 31.59375 35.992188 33.371094 38.175781 33.371094 C 40.363281 33.371094 42.140625 31.59375 42.140625 29.40625 L 42.140625 23.0625 C 42.140625 20.140625 40.371094 17.542969 37.695312 16.460938 Z M 34.210938 4.035156 C 34.648438 4.035156 35.003906 4.390625 35.003906 4.828125 C 35.003906 5.265625 34.648438 5.621094 34.210938 5.621094 C 33.773438 5.621094 33.417969 5.265625 33.417969 4.828125 C 33.417969 4.390625 33.773438 4.035156 34.210938 4.035156 Z M 10.425781 4.035156 C 10.863281 4.035156 11.21875 4.390625 11.21875 4.828125 C 11.21875 5.265625 10.863281 5.621094 10.425781 5.621094 C 9.988281 5.621094 9.632812 5.265625 9.632812 4.828125 C 9.632812 4.390625 9.988281 4.035156 10.425781 4.035156 Z M 6.460938 31.785156 C 5.148438 31.785156 4.082031 30.71875 4.082031 29.40625 L 4.082031 23.0625 C 4.082031 21.179688 5.035156 19.480469 6.539062 18.472656 C 6.488281 18.9375 6.460938 19.414062 6.460938 19.890625 C 6.460938 22.636719 7.339844 25.195312 8.839844 27.375 L 8.839844 29.40625 C 8.839844 30.71875 7.773438 31.785156 6.460938 31.785156 Z M 24.230469 37.832031 C 24.078125 37.878906 23.945312 37.972656 23.84375 38.097656 L 22.316406 40.023438 L 20.789062 38.097656 C 20.691406 37.972656 20.558594 37.882812 20.410156 37.832031 C 19.445312 37.527344 18.554688 36.984375 17.835938 36.265625 C 16.929688 35.367188 16.332031 34.242188 16.09375 33.015625 C 18.007812 33.753906 20.109375 34.164062 22.316406 34.164062 C 24.519531 34.164062 26.621094 33.757812 28.527344 33.023438 C 28.085938 35.269531 26.476562 37.128906 24.230469 37.832031 Z M 22.316406 32.578125 C 14.449219 32.578125 8.046875 26.886719 8.046875 19.890625 C 8.046875 12.898438 14.449219 7.207031 22.316406 7.207031 C 30.1875 7.207031 36.589844 12.898438 36.589844 19.890625 C 36.589844 26.886719 30.1875 32.578125 22.316406 32.578125 Z M 40.554688 29.40625 C 40.554688 30.71875 39.488281 31.785156 38.175781 31.785156 C 36.863281 31.785156 35.796875 30.71875 35.796875 29.40625 L 35.796875 27.375 C 37.296875 25.195312 38.175781 22.636719 38.175781 19.890625 C 38.175781 19.414062 38.148438 18.9375 38.097656 18.472656 C 39.601562 19.480469 40.554688 21.179688 40.554688 23.0625 Z M 40.554688 29.40625 "/></g><path style=" stroke:none;fill-rule:nonzero;fill:#2262ee;fill-opacity:1;" d="M 19.148438 11.171875 L 25.488281 11.171875 C 25.925781 11.171875 26.28125 10.816406 26.28125 10.378906 C 26.28125 9.941406 25.925781 9.585938 25.488281 9.585938 L 19.148438 9.585938 C 18.707031 9.585938 18.355469 9.941406 18.355469 10.378906 C 18.355469 10.816406 18.707031 11.171875 19.148438 11.171875 Z M 19.148438 11.171875 "/></g></svg>