<svg xmlns="http://www.w3.org/2000/svg" xmlns:xlink="http://www.w3.org/1999/xlink" width="60" zoomAndPan="magnify" viewBox="0 0 45 44.999999" height="60" preserveAspectRatio="xMidYMid meet" version="1.2"><defs><clipPath id="4c497de8b4"><path d="M 11 4.5 L 36.363281 4.5 L 36.363281 39 L 11 39 Z M 11 4.5 "/></clipPath><clipPath id="a34e899e7b"><path d="M 8.640625 7 L 34 7 L 34 41.25 L 8.640625 41.25 Z M 8.640625 7 "/></clipPath></defs><g id="68425d2309"><g clip-rule="nonzero" clip-path="url(#4c497de8b4)"><path style=" stroke:none;fill-rule:nonzero;fill:#2262ee;fill-opacity:1;" d="M 35.632812 38.621094 L 11.59375 38.621094 C 11.328125 38.621094 11.117188 38.40625 11.117188 38.144531 L 11.117188 5.132812 C 11.117188 4.871094 11.328125 4.65625 11.59375 4.65625 L 35.632812 4.65625 C 35.898438 4.65625 36.109375 4.871094 36.109375 5.132812 L 36.109375 38.144531 C 36.109375 38.40625 35.898438 38.621094 35.632812 38.621094 Z M 12.070312 37.664062 L 35.15625 37.664062 L 35.15625 5.609375 L 12.070312 5.609375 Z M 12.070312 37.664062 "/></g><g clip-rule="nonzero" clip-path="url(#a34e899e7b)"><path style=" stroke:none;fill-rule:nonzero;fill:#2262ee;fill-opacity:1;" d="M 33.15625 41.09375 L 9.117188 41.09375 C 8.855469 41.09375 8.640625 40.878906 8.640625 40.617188 L 8.640625 7.609375 C 8.640625 7.34375 8.855469 7.132812 9.117188 7.132812 L 11.589844 7.132812 C 11.855469 7.132812 12.070312 7.34375 12.070312 7.609375 C 12.070312 7.871094 11.855469 8.085938 11.589844 8.085938 L 9.59375 8.085938 L 9.59375 40.140625 L 32.679688 40.140625 L 32.679688 38.140625 C 32.679688 37.878906 32.894531 37.664062 33.15625 37.664062 C 33.421875 37.664062 33.632812 37.878906 33.632812 38.140625 L 33.632812 40.617188 C 33.632812 40.878906 33.421875 41.09375 33.15625 41.09375 Z M 33.15625 41.09375 "/></g><path style=" stroke:none;fill-rule:nonzero;fill:#2262ee;fill-opacity:1;" d="M 19.375 12.402344 C 19.433594 12.4375 19.492188 12.46875 19.554688 12.496094 C 19.710938 12.574219 19.777344 12.765625 19.695312 12.917969 L 19.625 13.058594 C 19.546875 13.207031 19.367188 13.265625 19.210938 13.199219 C 19.164062 13.175781 19.117188 13.152344 19.066406 13.125 C 19.039062 13.109375 18.871094 13 18.558594 12.789062 C 18.472656 12.734375 18.371094 12.726562 18.273438 12.757812 C 18 12.855469 17.703125 12.90625 17.382812 12.90625 C 16.644531 12.90625 16.070312 12.6875 15.652344 12.253906 C 15.234375 11.820312 15.027344 11.214844 15.027344 10.429688 C 15.027344 9.648438 15.234375 9.039062 15.652344 8.605469 C 16.070312 8.171875 16.640625 7.953125 17.355469 7.953125 C 18.066406 7.953125 18.628906 8.171875 19.042969 8.605469 C 19.460938 9.039062 19.667969 9.648438 19.667969 10.429688 C 19.667969 10.84375 19.609375 11.207031 19.496094 11.519531 C 19.441406 11.671875 19.367188 11.816406 19.269531 11.960938 C 19.171875 12.109375 19.214844 12.316406 19.375 12.402344 Z M 18.054688 11.5 C 18.207031 11.597656 18.417969 11.53125 18.496094 11.367188 C 18.527344 11.296875 18.554688 11.21875 18.578125 11.140625 C 18.640625 10.933594 18.671875 10.695312 18.671875 10.429688 C 18.671875 9.875 18.550781 9.460938 18.304688 9.1875 C 18.0625 8.914062 17.742188 8.777344 17.347656 8.777344 C 16.953125 8.777344 16.636719 8.917969 16.390625 9.191406 C 16.144531 9.464844 16.023438 9.878906 16.023438 10.429688 C 16.023438 10.988281 16.144531 11.40625 16.390625 11.683594 C 16.636719 11.964844 16.945312 12.101562 17.320312 12.101562 C 17.460938 12.101562 17.589844 12.078125 17.714844 12.035156 C 17.609375 11.964844 17.507812 11.90625 17.402344 11.851562 C 17.246094 11.777344 17.1875 11.59375 17.261719 11.441406 C 17.335938 11.285156 17.519531 11.222656 17.675781 11.296875 C 17.804688 11.355469 17.929688 11.421875 18.054688 11.5 Z M 18.054688 11.5 "/><path style=" stroke:none;fill-rule:nonzero;fill:#2262ee;fill-opacity:1;" d="M 21.265625 8.035156 L 21.613281 8.035156 C 21.785156 8.035156 21.921875 8.171875 21.921875 8.34375 L 21.921875 10.628906 C 21.921875 11.039062 21.933594 11.308594 21.957031 11.429688 C 22 11.625 22.097656 11.78125 22.253906 11.902344 C 22.410156 12.019531 22.625 12.078125 22.894531 12.078125 C 23.167969 12.078125 23.375 12.023438 23.515625 11.910156 C 23.652344 11.796875 23.738281 11.660156 23.765625 11.496094 C 23.792969 11.335938 23.808594 11.0625 23.808594 10.683594 L 23.808594 8.34375 C 23.808594 8.171875 23.945312 8.035156 24.117188 8.035156 L 24.464844 8.035156 C 24.636719 8.035156 24.773438 8.171875 24.773438 8.34375 L 24.773438 10.550781 C 24.773438 11.125 24.75 11.53125 24.695312 11.769531 C 24.644531 12.007812 24.546875 12.207031 24.40625 12.371094 C 24.265625 12.535156 24.078125 12.664062 23.84375 12.761719 C 23.609375 12.855469 23.300781 12.90625 22.921875 12.90625 C 22.464844 12.90625 22.117188 12.851562 21.882812 12.746094 C 21.644531 12.640625 21.457031 12.503906 21.320312 12.335938 C 21.183594 12.167969 21.09375 11.988281 21.050781 11.804688 C 20.988281 11.53125 20.957031 11.125 20.957031 10.589844 L 20.957031 8.34375 C 20.957031 8.171875 21.09375 8.035156 21.265625 8.035156 Z M 21.265625 8.035156 "/><path style=" stroke:none;fill-rule:nonzero;fill:#2262ee;fill-opacity:1;" d="M 26.300781 12.511719 L 26.300781 8.34375 C 26.300781 8.171875 26.441406 8.035156 26.609375 8.035156 L 26.957031 8.035156 C 27.128906 8.035156 27.265625 8.171875 27.265625 8.34375 L 27.265625 12.511719 C 27.265625 12.683594 27.128906 12.824219 26.957031 12.824219 L 26.609375 12.824219 C 26.441406 12.824219 26.300781 12.683594 26.300781 12.511719 Z M 26.300781 12.511719 "/><path style=" stroke:none;fill-rule:nonzero;fill:#2262ee;fill-opacity:1;" d="M 28.308594 12.511719 L 28.308594 12.0625 C 28.308594 11.992188 28.332031 11.921875 28.378906 11.867188 L 30.414062 9.351562 C 30.578125 9.148438 30.433594 8.84375 30.171875 8.84375 L 28.90625 8.84375 C 28.734375 8.84375 28.59375 8.707031 28.59375 8.535156 L 28.59375 8.34375 C 28.59375 8.171875 28.734375 8.035156 28.90625 8.035156 L 31.789062 8.035156 C 31.960938 8.035156 32.097656 8.171875 32.097656 8.34375 L 32.097656 8.675781 C 32.097656 8.746094 32.074219 8.816406 32.03125 8.871094 L 29.886719 11.511719 C 29.722656 11.714844 29.867188 12.015625 30.128906 12.015625 L 31.890625 12.015625 C 32.0625 12.015625 32.199219 12.15625 32.199219 12.328125 L 32.199219 12.511719 C 32.199219 12.683594 32.0625 12.824219 31.890625 12.824219 L 28.621094 12.824219 C 28.449219 12.824219 28.308594 12.683594 28.308594 12.511719 Z M 28.308594 12.511719 "/><path style=" stroke:none;fill-rule:nonzero;fill:#2262ee;fill-opacity:1;" d="M 16.824219 18.71875 L 14.53125 18.71875 C 14.265625 18.71875 14.054688 18.503906 14.054688 18.242188 L 14.054688 15.949219 C 14.054688 15.6875 14.265625 15.472656 14.53125 15.472656 L 16.824219 15.472656 C 17.085938 15.472656 17.300781 15.6875 17.300781 15.949219 L 17.300781 18.242188 C 17.300781 18.503906 17.085938 18.71875 16.824219 18.71875 Z M 15.007812 17.765625 L 16.34375 17.765625 L 16.34375 16.425781 L 15.007812 16.425781 Z M 15.007812 17.765625 "/><path style=" stroke:none;fill-rule:nonzero;fill:#2262ee;fill-opacity:1;" d="M 32.695312 17.570312 L 19.449219 17.570312 C 19.1875 17.570312 18.972656 17.359375 18.972656 17.09375 C 18.972656 16.832031 19.1875 16.617188 19.449219 16.617188 L 32.695312 16.617188 C 32.960938 16.617188 33.171875 16.832031 33.171875 17.09375 C 33.171875 17.359375 32.960938 17.570312 32.695312 17.570312 Z M 32.695312 17.570312 "/><path style=" stroke:none;fill-rule:nonzero;fill:#2262ee;fill-opacity:1;" d="M 16.824219 24.40625 L 14.53125 24.40625 C 14.265625 24.40625 14.054688 24.191406 14.054688 23.929688 L 14.054688 21.636719 C 14.054688 21.375 14.265625 21.160156 14.53125 21.160156 L 16.824219 21.160156 C 17.085938 21.160156 17.300781 21.375 17.300781 21.636719 L 17.300781 23.929688 C 17.300781 24.191406 17.085938 24.40625 16.824219 24.40625 Z M 15.007812 23.453125 L 16.34375 23.453125 L 16.34375 22.113281 L 15.007812 22.113281 Z M 15.007812 23.453125 "/><path style=" stroke:none;fill-rule:nonzero;fill:#2262ee;fill-opacity:1;" d="M 32.695312 23.261719 L 19.449219 23.261719 C 19.1875 23.261719 18.972656 23.046875 18.972656 22.785156 C 18.972656 22.519531 19.1875 22.308594 19.449219 22.308594 L 32.695312 22.308594 C 32.960938 22.308594 33.171875 22.519531 33.171875 22.785156 C 33.171875 23.046875 32.960938 23.261719 32.695312 23.261719 Z M 32.695312 23.261719 "/><path style=" stroke:none;fill-rule:nonzero;fill:#2262ee;fill-opacity:1;" d="M 16.824219 30.09375 L 14.53125 30.09375 C 14.265625 30.09375 14.054688 29.882812 14.054688 29.617188 L 14.054688 27.328125 C 14.054688 27.0625 14.265625 26.851562 14.53125 26.851562 L 16.824219 26.851562 C 17.085938 26.851562 17.300781 27.0625 17.300781 27.328125 L 17.300781 29.617188 C 17.300781 29.882812 17.085938 30.09375 16.824219 30.09375 Z M 15.007812 29.140625 L 16.34375 29.140625 L 16.34375 27.804688 L 15.007812 27.804688 Z M 15.007812 29.140625 "/><path style=" stroke:none;fill-rule:nonzero;fill:#2262ee;fill-opacity:1;" d="M 32.695312 28.949219 L 19.449219 28.949219 C 19.1875 28.949219 18.972656 28.734375 18.972656 28.472656 C 18.972656 28.210938 19.1875 27.996094 19.449219 27.996094 L 32.695312 27.996094 C 32.960938 27.996094 33.171875 28.210938 33.171875 28.472656 C 33.171875 28.734375 32.960938 28.949219 32.695312 28.949219 Z M 32.695312 28.949219 "/><path style=" stroke:none;fill-rule:nonzero;fill:#2262ee;fill-opacity:1;" d="M 16.824219 35.785156 L 14.53125 35.785156 C 14.265625 35.785156 14.054688 35.570312 14.054688 35.308594 L 14.054688 33.015625 C 14.054688 32.753906 14.265625 32.539062 14.53125 32.539062 L 16.824219 32.539062 C 17.085938 32.539062 17.300781 32.753906 17.300781 33.015625 L 17.300781 35.308594 C 17.300781 35.570312 17.085938 35.785156 16.824219 35.785156 Z M 15.007812 34.832031 L 16.34375 34.832031 L 16.34375 33.492188 L 15.007812 33.492188 Z M 15.007812 34.832031 "/><path style=" stroke:none;fill-rule:nonzero;fill:#2262ee;fill-opacity:1;" d="M 32.695312 34.636719 L 19.449219 34.636719 C 19.1875 34.636719 18.972656 34.425781 18.972656 34.160156 C 18.972656 33.898438 19.1875 33.683594 19.449219 33.683594 L 32.695312 33.683594 C 32.960938 33.683594 33.171875 33.898438 33.171875 34.160156 C 33.171875 34.425781 32.960938 34.636719 32.695312 34.636719 Z M 32.695312 34.636719 "/></g></svg>