<svg xmlns="http://www.w3.org/2000/svg" xmlns:xlink="http://www.w3.org/1999/xlink" width="60" zoomAndPan="magnify" viewBox="0 0 45 44.999999" height="60" preserveAspectRatio="xMidYMid meet" version="1.2"><defs><clipPath id="8c615bc776"><path d="M 31 22 L 42.515625 22 L 42.515625 34 L 31 34 Z M 31 22 "/></clipPath><clipPath id="c7c61f884d"><path d="M 2.765625 3 L 41 3 L 41 42 L 2.765625 42 Z M 2.765625 3 "/></clipPath></defs><g id="86a0f12952"><path style=" stroke:none;fill-rule:evenodd;fill:#2262ee;fill-opacity:1;" d="M 25.402344 21.75 C 23.945312 21.75 22.582031 21.195312 21.5625 20.152344 C 19.4375 18.027344 19.4375 14.582031 21.5625 12.453125 C 22.582031 11.4375 23.945312 10.859375 25.402344 10.859375 C 26.859375 10.859375 28.222656 11.4375 29.238281 12.453125 C 31.367188 14.582031 31.367188 18.027344 29.238281 20.152344 C 28.222656 21.195312 26.859375 21.75 25.402344 21.75 Z M 25.402344 11.945312 C 24.246094 11.945312 23.136719 12.382812 22.304688 13.214844 C 21.496094 14.050781 21.03125 15.136719 21.03125 16.316406 C 21.03125 17.472656 21.496094 18.582031 22.304688 19.390625 C 23.136719 20.222656 24.246094 20.683594 25.402344 20.683594 C 26.558594 20.683594 27.667969 20.222656 28.5 19.390625 C 30.1875 17.703125 30.1875 14.925781 28.5 13.214844 C 27.667969 12.382812 26.558594 11.945312 25.402344 11.945312 Z M 25.402344 11.945312 "/><path style=" stroke:none;fill-rule:evenodd;fill:#2262ee;fill-opacity:1;" d="M 25.402344 24.222656 C 23.296875 24.222656 21.308594 23.390625 19.804688 21.910156 C 18.328125 20.40625 17.496094 18.417969 17.496094 16.316406 C 17.496094 14.1875 18.328125 12.199219 19.804688 10.71875 C 21.308594 9.214844 23.296875 8.40625 25.402344 8.40625 C 27.503906 8.40625 29.496094 9.214844 30.996094 10.71875 C 32.476562 12.199219 33.308594 14.1875 33.308594 16.316406 C 33.308594 18.417969 32.476562 20.40625 30.996094 21.910156 C 29.496094 23.390625 27.503906 24.222656 25.402344 24.222656 Z M 25.402344 9.472656 C 23.574219 9.472656 21.863281 10.1875 20.570312 11.484375 C 19.273438 12.777344 18.558594 14.488281 18.558594 16.316406 C 18.558594 18.140625 19.273438 19.851562 20.570312 21.148438 C 21.863281 22.441406 23.574219 23.136719 25.402344 23.136719 C 27.226562 23.136719 28.9375 22.417969 30.234375 21.148438 C 31.527344 19.851562 32.246094 18.140625 32.246094 16.316406 C 32.246094 14.488281 31.527344 12.777344 30.234375 11.484375 C 28.9375 10.1875 27.226562 9.472656 25.402344 9.472656 Z M 25.402344 9.472656 "/><path style=" stroke:none;fill-rule:evenodd;fill:#2262ee;fill-opacity:1;" d="M 33.125 24.570312 C 32.984375 24.570312 32.847656 24.523438 32.753906 24.40625 L 30.234375 21.910156 C 30.027344 21.679688 30.027344 21.355469 30.234375 21.148438 C 30.441406 20.9375 30.789062 20.9375 30.996094 21.148438 L 33.515625 23.667969 C 33.726562 23.875 33.726562 24.199219 33.515625 24.40625 C 33.402344 24.523438 33.261719 24.570312 33.125 24.570312 Z M 33.125 24.570312 "/><g clip-rule="nonzero" clip-path="url(#8c615bc776)"><path style=" stroke:none;fill-rule:evenodd;fill:#2262ee;fill-opacity:1;" d="M 39.207031 33.125 C 39.066406 33.125 38.929688 33.078125 38.8125 32.984375 L 31.507812 25.65625 C 31.296875 25.449219 31.296875 25.101562 31.507812 24.894531 L 34.003906 22.417969 C 34.1875 22.210938 34.558594 22.210938 34.742188 22.417969 L 42.074219 29.726562 C 42.164062 29.839844 42.234375 29.957031 42.234375 30.117188 C 42.234375 30.257812 42.164062 30.394531 42.074219 30.488281 L 39.574219 32.984375 C 39.484375 33.078125 39.34375 33.125 39.207031 33.125 Z M 32.640625 25.285156 L 39.207031 31.828125 L 40.941406 30.117188 L 34.371094 23.550781 Z M 32.640625 25.285156 "/></g><g clip-rule="nonzero" clip-path="url(#c7c61f884d)"><path style=" stroke:none;fill-rule:evenodd;fill:#2262ee;fill-opacity:1;" d="M 40.246094 41.125 L 3.296875 41.125 C 2.996094 41.125 2.765625 40.894531 2.765625 40.59375 L 2.765625 4.40625 C 2.765625 4.105469 2.996094 3.875 3.296875 3.875 L 7.738281 3.875 C 8.039062 3.875 8.269531 4.105469 8.269531 4.40625 L 8.269531 35.621094 L 40.246094 35.621094 C 40.546875 35.621094 40.777344 35.851562 40.777344 36.152344 L 40.777344 40.59375 C 40.777344 40.894531 40.546875 41.125 40.246094 41.125 Z M 3.851562 40.0625 L 39.714844 40.0625 L 39.714844 36.683594 L 7.738281 36.683594 C 7.4375 36.683594 7.203125 36.453125 7.203125 36.152344 L 7.203125 4.9375 L 3.851562 4.9375 Z M 3.851562 40.0625 "/></g><path style=" stroke:none;fill-rule:evenodd;fill:#2262ee;fill-opacity:1;" d="M 16.199219 36.683594 L 11.761719 36.683594 C 11.460938 36.683594 11.226562 36.453125 11.226562 36.152344 L 11.226562 23.828125 C 11.226562 23.527344 11.460938 23.296875 11.761719 23.296875 L 16.199219 23.296875 C 16.5 23.296875 16.730469 23.527344 16.730469 23.828125 L 16.730469 36.152344 C 16.730469 36.453125 16.5 36.683594 16.199219 36.683594 Z M 12.292969 35.621094 L 15.667969 35.621094 L 15.667969 24.359375 L 12.292969 24.359375 Z M 12.292969 35.621094 "/><path style=" stroke:none;fill-rule:evenodd;fill:#2262ee;fill-opacity:1;" d="M 25.515625 36.683594 L 21.078125 36.683594 C 20.777344 36.683594 20.546875 36.453125 20.546875 36.152344 L 20.546875 22.28125 C 20.546875 21.980469 20.777344 21.75 21.078125 21.75 C 21.378906 21.75 21.609375 21.980469 21.609375 22.28125 L 21.609375 35.621094 L 24.960938 35.621094 L 24.960938 23.667969 C 24.960938 23.390625 25.21875 23.136719 25.515625 23.136719 C 25.792969 23.136719 26.050781 23.390625 26.050781 23.667969 L 26.050781 36.152344 C 26.050781 36.453125 25.792969 36.683594 25.515625 36.683594 Z M 25.515625 36.683594 "/><path style=" stroke:none;fill-rule:evenodd;fill:#2262ee;fill-opacity:1;" d="M 14.347656 15.828125 C 14.164062 15.828125 13.980469 15.714844 13.886719 15.550781 C 13.726562 15.296875 13.816406 14.949219 14.09375 14.8125 L 18.71875 12.199219 C 18.996094 12.0625 19.320312 12.152344 19.460938 12.40625 C 19.597656 12.660156 19.503906 12.984375 19.25 13.125 L 14.605469 15.761719 C 14.535156 15.804688 14.441406 15.828125 14.347656 15.828125 Z M 14.347656 15.828125 "/><path style=" stroke:none;fill-rule:evenodd;fill:#2262ee;fill-opacity:1;" d="M 34.949219 36.683594 L 30.535156 36.683594 C 30.234375 36.683594 29.980469 36.453125 29.980469 36.152344 L 29.980469 21.609375 C 29.980469 21.308594 30.234375 21.078125 30.535156 21.078125 C 30.835938 21.078125 31.066406 21.308594 31.066406 21.609375 L 31.066406 35.621094 L 34.417969 35.621094 L 34.417969 28.363281 C 34.417969 28.0625 34.671875 27.804688 34.949219 27.804688 C 35.25 27.804688 35.507812 28.0625 35.507812 28.363281 L 35.507812 36.152344 C 35.507812 36.453125 35.25 36.683594 34.949219 36.683594 Z M 34.949219 23.921875 C 34.671875 23.921875 34.417969 23.667969 34.417969 23.390625 L 34.417969 20.082031 L 32.015625 20.082031 C 31.714844 20.082031 31.484375 19.851562 31.484375 19.550781 C 31.484375 19.25 31.714844 19.019531 32.015625 19.019531 L 34.949219 19.019531 C 35.25 19.019531 35.507812 19.25 35.507812 19.550781 L 35.507812 23.390625 C 35.507812 23.667969 35.25 23.921875 34.949219 23.921875 Z M 34.949219 23.921875 "/><path style=" stroke:none;fill-rule:evenodd;fill:#2262ee;fill-opacity:1;" d="M 24.40625 15.945312 C 24.246094 15.945312 24.0625 15.851562 23.945312 15.691406 C 23.921875 15.621094 23.898438 15.574219 23.851562 15.550781 C 23.714844 15.414062 23.527344 15.320312 23.34375 15.320312 C 23.136719 15.320312 22.972656 15.414062 22.835938 15.527344 C 22.789062 15.574219 22.742188 15.621094 22.71875 15.691406 C 22.558594 15.945312 22.234375 16.015625 21.980469 15.875 C 21.726562 15.714844 21.632812 15.390625 21.792969 15.136719 C 21.863281 14.996094 21.957031 14.882812 22.070312 14.789062 C 22.394531 14.441406 22.859375 14.257812 23.34375 14.257812 C 23.804688 14.257812 24.269531 14.441406 24.617188 14.789062 C 24.707031 14.882812 24.800781 14.996094 24.871094 15.136719 C 25.03125 15.390625 24.9375 15.714844 24.683594 15.875 C 24.617188 15.921875 24.523438 15.945312 24.40625 15.945312 Z M 24.40625 15.945312 "/><path style=" stroke:none;fill-rule:evenodd;fill:#2262ee;fill-opacity:1;" d="M 28.546875 15.945312 C 28.363281 15.945312 28.175781 15.851562 28.082031 15.691406 C 28.0625 15.621094 28.015625 15.574219 27.96875 15.550781 C 27.828125 15.414062 27.667969 15.320312 27.460938 15.320312 C 27.273438 15.320312 27.089844 15.414062 26.949219 15.527344 C 26.90625 15.574219 26.882812 15.621094 26.835938 15.691406 C 26.695312 15.945312 26.371094 16.015625 26.117188 15.875 C 25.863281 15.714844 25.773438 15.390625 25.933594 15.136719 C 26.003906 14.996094 26.09375 14.882812 26.1875 14.789062 C 26.535156 14.441406 26.996094 14.257812 27.460938 14.257812 C 27.945312 14.257812 28.40625 14.441406 28.730469 14.789062 C 28.847656 14.882812 28.9375 14.996094 29.007812 15.136719 C 29.171875 15.390625 29.078125 15.714844 28.824219 15.875 C 28.730469 15.921875 28.640625 15.945312 28.546875 15.945312 Z M 28.546875 15.945312 "/><path style=" stroke:none;fill-rule:evenodd;fill:#2262ee;fill-opacity:1;" d="M 25.496094 19.136719 C 25.007812 19.136719 24.570312 18.949219 24.222656 18.605469 C 24.128906 18.511719 24.039062 18.371094 23.96875 18.257812 C 23.804688 18.003906 23.875 17.679688 24.128906 17.515625 C 24.382812 17.355469 24.730469 17.449219 24.871094 17.703125 C 24.917969 17.75 24.9375 17.792969 24.984375 17.839844 C 25.261719 18.117188 25.726562 18.117188 26.003906 17.839844 C 26.050781 17.792969 26.09375 17.75 26.117188 17.703125 C 26.28125 17.449219 26.605469 17.355469 26.859375 17.515625 C 27.113281 17.679688 27.207031 18.003906 27.042969 18.257812 C 26.972656 18.371094 26.882812 18.488281 26.765625 18.605469 C 26.417969 18.949219 25.980469 19.136719 25.496094 19.136719 Z M 25.496094 19.136719 "/></g></svg>