<svg xmlns="http://www.w3.org/2000/svg" xmlns:xlink="http://www.w3.org/1999/xlink" width="60" zoomAndPan="magnify" viewBox="0 0 45 44.999999" height="60" preserveAspectRatio="xMidYMid meet" version="1.2"><defs><clipPath id="ef59f7e017"><path d="M 4.5 5.523438 L 42.75 5.523438 L 42.75 40.773438 L 4.5 40.773438 Z M 4.5 5.523438 "/></clipPath></defs><g id="84a440204b"><g clip-rule="nonzero" clip-path="url(#ef59f7e017)"><path style=" stroke:none;fill-rule:evenodd;fill:#2262ee;fill-opacity:1;" d="M 26.222656 19.875 L 26.222656 27.402344 C 26.222656 33.703125 21.65625 39.167969 15.472656 40.3125 C 15.398438 40.328125 15.320312 40.328125 15.246094 40.3125 C 9.066406 39.167969 4.5 33.703125 4.5 27.402344 L 4.5 18.5625 C 4.5 18.316406 4.648438 18.09375 4.875 17.996094 L 9.355469 16.078125 C 10.792969 10.023438 16.234375 5.523438 22.722656 5.523438 C 29.179688 5.523438 34.601562 9.980469 36.070312 15.988281 C 36.148438 16.320312 35.945312 16.652344 35.617188 16.734375 C 35.285156 16.816406 34.949219 16.613281 34.871094 16.28125 C 34.378906 14.269531 33.398438 12.449219 32.066406 10.953125 C 31.242188 11.425781 30.332031 11.824219 29.363281 12.144531 C 30.347656 14.117188 30.933594 16.316406 31.019531 18.644531 L 31.429688 18.644531 C 31.773438 18.644531 32.046875 18.917969 32.046875 19.261719 C 32.046875 19.601562 31.773438 19.875 31.429688 19.875 Z M 10.808594 15.453125 L 15.117188 13.609375 C 15.226562 13.5625 15.347656 13.546875 15.460938 13.566406 C 15.648438 13.082031 15.855469 12.609375 16.085938 12.144531 C 15.117188 11.824219 14.203125 11.425781 13.378906 10.949219 C 12.230469 12.242188 11.347656 13.769531 10.808594 15.453125 Z M 16.605469 14.039062 L 22.105469 16.394531 L 22.105469 13.152344 C 20.457031 13.109375 18.820312 12.890625 17.292969 12.5 C 17.035156 12.996094 16.804688 13.511719 16.605469 14.039062 Z M 23.339844 16.921875 L 25.847656 17.996094 C 26.074219 18.09375 26.222656 18.316406 26.222656 18.5625 L 26.222656 18.644531 L 29.785156 18.644531 C 29.695312 16.4375 29.117188 14.355469 28.15625 12.5 C 26.628906 12.890625 24.988281 13.109375 23.339844 13.152344 Z M 31.171875 10.042969 C 29.554688 8.558594 27.546875 7.496094 25.320312 7.027344 C 26.679688 8.167969 27.84375 9.527344 28.761719 11.054688 C 29.621094 10.78125 30.429688 10.441406 31.171875 10.042969 Z M 20.128906 7.027344 C 17.902344 7.496094 15.894531 8.558594 14.277344 10.039062 C 15.019531 10.441406 15.828125 10.78125 16.6875 11.054688 C 17.605469 9.527344 18.773438 8.164062 20.128906 7.027344 Z M 17.921875 11.398438 C 19.257812 11.722656 20.675781 11.902344 22.105469 11.941406 L 22.105469 7.074219 C 20.433594 8.214844 19.007812 9.6875 17.921875 11.398438 Z M 23.339844 11.941406 C 24.769531 11.902344 26.1875 11.722656 27.527344 11.398438 C 26.441406 9.6875 25.011719 8.210938 23.339844 7.074219 Z M 15.359375 14.847656 C 15.359375 14.847656 5.734375 18.96875 5.734375 18.96875 L 5.734375 27.402344 C 5.734375 33.074219 9.816406 37.996094 15.359375 39.078125 C 20.90625 37.996094 24.988281 33.074219 24.988281 27.402344 C 24.988281 27.402344 24.988281 18.96875 24.988281 18.96875 Z M 20.3125 23.527344 L 20.667969 23.527344 C 21.445312 23.527344 22.078125 24.160156 22.078125 24.933594 L 22.078125 33.371094 C 22.078125 34.148438 21.445312 34.78125 20.667969 34.78125 L 10.054688 34.78125 C 9.277344 34.78125 8.644531 34.148438 8.644531 33.371094 L 8.644531 24.933594 C 8.644531 24.160156 9.277344 23.527344 10.054688 23.527344 L 10.410156 23.527344 L 10.410156 22.324219 C 10.410156 19.597656 12.636719 17.371094 15.363281 17.371094 C 18.085938 17.371094 20.3125 19.597656 20.3125 22.324219 Z M 11.644531 23.527344 L 12.394531 23.527344 L 12.394531 22.324219 C 12.394531 20.695312 13.734375 19.355469 15.363281 19.355469 C 16.988281 19.355469 18.328125 20.695312 18.328125 22.324219 L 18.328125 23.527344 L 19.078125 23.527344 L 19.078125 22.324219 C 19.078125 20.277344 17.40625 18.605469 15.363281 18.605469 C 13.316406 18.605469 11.644531 20.277344 11.644531 22.324219 Z M 13.628906 23.527344 L 17.09375 23.527344 L 17.09375 22.324219 C 17.09375 21.371094 16.3125 20.589844 15.363281 20.589844 C 14.410156 20.589844 13.628906 21.371094 13.628906 22.324219 Z M 10.054688 24.761719 C 9.957031 24.761719 9.878906 24.839844 9.878906 24.933594 L 9.878906 33.371094 C 9.878906 33.46875 9.957031 33.546875 10.054688 33.546875 L 20.667969 33.546875 C 20.765625 33.546875 20.84375 33.46875 20.84375 33.371094 L 20.84375 24.933594 C 20.84375 24.839844 20.765625 24.761719 20.667969 24.761719 Z M 15.363281 25.527344 C 16.554688 25.527344 17.519531 26.496094 17.519531 27.6875 C 17.519531 28.335938 17.238281 28.914062 16.789062 29.308594 L 16.789062 31.355469 C 16.789062 32.140625 16.144531 32.78125 15.363281 32.78125 C 14.578125 32.78125 13.9375 32.140625 13.9375 31.355469 C 13.9375 31.355469 13.9375 29.308594 13.9375 29.308594 C 13.484375 28.914062 13.203125 28.335938 13.203125 27.6875 C 13.203125 26.496094 14.171875 25.527344 15.363281 25.527344 Z M 15.363281 26.761719 C 14.851562 26.761719 14.433594 27.175781 14.433594 27.6875 C 14.433594 28.019531 14.613281 28.3125 14.875 28.476562 C 15.058594 28.589844 15.167969 28.789062 15.167969 29 L 15.167969 31.355469 C 15.167969 31.460938 15.257812 31.546875 15.363281 31.546875 C 15.46875 31.546875 15.554688 31.460938 15.554688 31.355469 L 15.554688 29 C 15.554688 28.789062 15.664062 28.589844 15.847656 28.476562 C 16.113281 28.3125 16.289062 28.019531 16.289062 27.6875 C 16.289062 27.175781 15.875 26.761719 15.363281 26.761719 Z M 37.976562 18.316406 L 34.828125 18.316406 L 32.644531 21.367188 C 32.53125 21.53125 32.34375 21.625 32.144531 21.625 L 27.410156 21.625 C 27.070312 21.625 26.792969 21.347656 26.792969 21.007812 C 26.792969 20.667969 27.070312 20.390625 27.410156 20.390625 L 31.828125 20.390625 L 34.007812 17.339844 C 34.125 17.175781 34.3125 17.082031 34.511719 17.082031 L 38 17.082031 C 38.285156 16.066406 39.222656 15.320312 40.328125 15.320312 C 41.664062 15.320312 42.75 16.402344 42.75 17.738281 C 42.75 19.078125 41.664062 20.160156 40.328125 20.160156 C 39.191406 20.160156 38.234375 19.375 37.976562 18.316406 Z M 40.328125 16.554688 C 39.675781 16.554688 39.140625 17.085938 39.140625 17.738281 C 39.140625 18.394531 39.675781 18.925781 40.328125 18.925781 C 40.984375 18.925781 41.515625 18.394531 41.515625 17.738281 C 41.515625 17.085938 40.984375 16.554688 40.328125 16.554688 Z M 38 37.675781 L 34.511719 37.675781 C 34.3125 37.675781 34.125 37.582031 34.007812 37.417969 C 34.007812 37.417969 31.828125 34.367188 31.828125 34.367188 L 27.410156 34.367188 C 27.070312 34.367188 26.792969 34.089844 26.792969 33.75 C 26.792969 33.410156 27.070312 33.132812 27.410156 33.132812 L 32.144531 33.132812 C 32.34375 33.132812 32.53125 33.230469 32.644531 33.390625 L 34.828125 36.445312 L 37.976562 36.445312 C 38.234375 35.382812 39.191406 34.597656 40.328125 34.597656 C 41.664062 34.597656 42.75 35.683594 42.75 37.019531 C 42.75 38.355469 41.664062 39.4375 40.328125 39.4375 C 39.222656 39.4375 38.285156 38.695312 38 37.675781 Z M 40.328125 38.207031 C 40.984375 38.207031 41.515625 37.671875 41.515625 37.019531 C 41.515625 36.363281 40.984375 35.832031 40.328125 35.832031 C 39.675781 35.832031 39.140625 36.363281 39.140625 37.019531 C 39.140625 37.671875 39.675781 38.207031 40.328125 38.207031 Z M 37.988281 27.996094 L 27.410156 27.996094 C 27.070312 27.996094 26.792969 27.71875 26.792969 27.378906 C 26.792969 27.039062 27.070312 26.761719 27.410156 26.761719 L 37.988281 26.761719 C 38.261719 25.722656 39.207031 24.957031 40.328125 24.957031 C 41.664062 24.957031 42.75 26.042969 42.75 27.378906 C 42.75 28.714844 41.664062 29.800781 40.328125 29.800781 C 39.207031 29.800781 38.261719 29.035156 37.988281 27.996094 Z M 40.328125 28.566406 C 40.984375 28.566406 41.515625 28.035156 41.515625 27.378906 C 41.515625 26.722656 40.984375 26.191406 40.328125 26.191406 C 39.675781 26.191406 39.140625 26.722656 39.140625 27.378906 C 39.140625 28.035156 39.675781 28.566406 40.328125 28.566406 Z M 40.328125 28.566406 "/></g></g></svg>