<svg xmlns="http://www.w3.org/2000/svg" xmlns:xlink="http://www.w3.org/1999/xlink" width="60" zoomAndPan="magnify" viewBox="0 0 45 44.999999" height="60" preserveAspectRatio="xMidYMid meet" version="1.2"><defs><clipPath id="97c1c5b1e3"><path d="M 3 5.582031 L 41.945312 5.582031 L 41.945312 39.332031 L 3 39.332031 Z M 3 5.582031 "/></clipPath></defs><g id="7073bac449"><g clip-rule="nonzero" clip-path="url(#97c1c5b1e3)"><path style=" stroke:none;fill-rule:nonzero;fill:#2262ee;fill-opacity:1;" d="M 41.292969 8.179688 L 34.804688 8.179688 C 34.542969 8.179688 34.304688 8.335938 34.203125 8.578125 C 34.105469 8.820312 34.160156 9.101562 34.34375 9.285156 L 36.15625 11.097656 L 35.453125 11.804688 L 32.667969 9.019531 C 32.546875 8.894531 32.382812 8.828125 32.207031 8.828125 C 32.035156 8.828125 31.871094 8.894531 31.75 9.019531 L 30.273438 10.496094 C 28.875 9.578125 27.347656 8.925781 25.71875 8.550781 L 25.71875 6.234375 C 25.71875 5.875 25.429688 5.582031 25.070312 5.582031 L 19.878906 5.582031 C 19.523438 5.582031 19.230469 5.875 19.230469 6.234375 L 19.230469 8.550781 C 17.605469 8.925781 16.078125 9.578125 14.679688 10.496094 L 13.203125 9.019531 C 13.078125 8.894531 12.914062 8.828125 12.742188 8.828125 C 12.570312 8.828125 12.40625 8.894531 12.285156 9.019531 L 9.039062 12.261719 C 8.785156 12.515625 8.785156 12.925781 9.039062 13.179688 L 10.515625 14.65625 C 9.601562 16.054688 8.949219 17.582031 8.574219 19.210938 L 6.253906 19.210938 C 5.894531 19.210938 5.605469 19.5 5.605469 19.859375 L 5.605469 25.050781 C 5.605469 25.40625 5.894531 25.699219 6.253906 25.699219 L 8.574219 25.699219 C 8.730469 26.378906 8.9375 27.042969 9.191406 27.683594 L 3.199219 33.675781 C 2.945312 33.929688 2.945312 34.339844 3.199219 34.59375 L 5.148438 36.539062 C 5.273438 36.664062 5.4375 36.730469 5.605469 36.730469 C 5.773438 36.730469 5.9375 36.664062 6.0625 36.539062 L 9.5 33.105469 L 12.285156 35.890625 C 12.40625 36.011719 12.570312 36.078125 12.742188 36.078125 C 12.914062 36.078125 13.078125 36.011719 13.203125 35.890625 L 14.679688 34.414062 C 16.078125 35.328125 17.605469 35.980469 19.230469 36.355469 L 19.230469 38.675781 C 19.230469 39.035156 19.523438 39.324219 19.878906 39.324219 L 25.070312 39.324219 C 25.429688 39.324219 25.71875 39.035156 25.71875 38.675781 L 25.71875 36.355469 C 27.347656 35.980469 28.875 35.328125 30.273438 34.414062 L 31.75 35.890625 C 31.871094 36.011719 32.035156 36.078125 32.207031 36.078125 C 32.382812 36.078125 32.546875 36.011719 32.667969 35.890625 L 35.910156 32.644531 C 36.164062 32.390625 36.164062 31.980469 35.910156 31.726562 L 34.433594 30.25 C 35.351562 28.851562 36.003906 27.324219 36.378906 25.699219 L 38.699219 25.699219 C 39.054688 25.699219 39.347656 25.40625 39.347656 25.050781 L 39.347656 19.859375 C 39.347656 19.5 39.054688 19.210938 38.699219 19.210938 L 36.378906 19.210938 C 36.222656 18.535156 36.015625 17.871094 35.761719 17.226562 L 39.023438 13.964844 L 40.835938 15.773438 C 41.019531 15.960938 41.296875 16.015625 41.542969 15.914062 C 41.785156 15.816406 41.941406 15.578125 41.941406 15.316406 L 41.941406 8.828125 C 41.941406 8.46875 41.652344 8.179688 41.292969 8.179688 Z M 5.605469 35.164062 L 4.578125 34.132812 L 9.761719 28.949219 C 9.988281 29.394531 10.238281 29.828125 10.515625 30.25 L 9.039062 31.726562 Z M 35.214844 19.980469 C 35.277344 20.285156 35.542969 20.507812 35.855469 20.507812 L 38.046875 20.507812 L 38.046875 24.402344 L 35.855469 24.402344 C 35.542969 24.402344 35.277344 24.621094 35.214844 24.925781 C 34.863281 26.746094 34.140625 28.441406 33.066406 29.953125 C 32.882812 30.214844 32.914062 30.566406 33.136719 30.789062 L 34.535156 32.1875 L 32.207031 34.511719 L 30.8125 33.117188 C 30.585938 32.890625 30.234375 32.863281 29.976562 33.046875 C 28.460938 34.121094 26.769531 34.84375 24.949219 35.195312 C 24.644531 35.253906 24.421875 35.519531 24.421875 35.832031 L 24.421875 38.027344 L 20.53125 38.027344 L 20.53125 35.832031 C 20.53125 35.519531 20.308594 35.253906 20.003906 35.195312 C 18.183594 34.84375 16.488281 34.121094 14.976562 33.046875 C 14.71875 32.863281 14.363281 32.890625 14.140625 33.117188 L 12.742188 34.511719 L 10.417969 32.1875 L 11.8125 30.789062 C 12.039062 30.566406 12.066406 30.214844 11.882812 29.953125 C 10.808594 28.441406 10.085938 26.75 9.734375 24.925781 C 9.675781 24.621094 9.410156 24.402344 9.097656 24.402344 L 6.902344 24.402344 L 6.902344 20.507812 L 9.097656 20.507812 C 9.410156 20.507812 9.675781 20.285156 9.734375 19.980469 C 10.085938 18.160156 10.808594 16.46875 11.882812 14.953125 C 12.066406 14.695312 12.039062 14.34375 11.8125 14.117188 L 10.417969 12.722656 L 12.742188 10.394531 L 14.140625 11.792969 C 14.363281 12.015625 14.71875 12.046875 14.976562 11.863281 C 16.488281 10.789062 18.183594 10.066406 20.003906 9.714844 C 20.308594 9.65625 20.53125 9.386719 20.53125 9.074219 L 20.53125 6.882812 L 24.421875 6.882812 L 24.421875 9.074219 C 24.421875 9.386719 24.644531 9.65625 24.949219 9.714844 C 26.769531 10.066406 28.460938 10.789062 29.976562 11.863281 C 30.234375 12.046875 30.585938 12.015625 30.8125 11.792969 L 32.207031 10.394531 L 34.535156 12.722656 L 31.816406 15.441406 C 29.613281 12.503906 26.175781 10.773438 22.476562 10.773438 C 16.035156 10.773438 10.796875 16.015625 10.796875 22.453125 C 10.796875 28.894531 16.035156 34.132812 22.476562 34.132812 C 28.914062 34.132812 34.15625 28.894531 34.15625 22.453125 C 34.15625 21.371094 34.007812 20.300781 33.714844 19.269531 L 34.75 18.234375 C 34.945312 18.804688 35.101562 19.390625 35.214844 19.980469 Z M 30.257812 22.726562 C 30.113281 26.894531 26.675781 30.242188 22.476562 30.242188 C 19.734375 30.242188 17.320312 28.816406 15.933594 26.671875 L 19.878906 22.722656 L 24.613281 27.453125 C 24.738281 27.582031 24.90625 27.644531 25.070312 27.644531 C 25.238281 27.644531 25.402344 27.582031 25.53125 27.453125 Z M 29.957031 17.300781 C 28.269531 14.855469 25.476562 13.371094 22.476562 13.371094 C 17.46875 13.371094 13.390625 17.445312 13.390625 22.453125 C 13.390625 27.464844 17.46875 31.539062 22.476562 31.539062 C 27.484375 31.539062 31.558594 27.464844 31.558594 22.453125 C 31.558594 22.128906 31.542969 21.800781 31.507812 21.476562 L 32.640625 20.34375 C 32.785156 21.035156 32.859375 21.738281 32.859375 22.453125 C 32.859375 28.179688 28.199219 32.835938 22.476562 32.835938 C 16.75 32.835938 12.09375 28.179688 12.09375 22.453125 C 12.09375 16.730469 16.75 12.070312 22.476562 12.070312 C 25.828125 12.070312 28.933594 13.667969 30.886719 16.367188 Z M 29.019531 18.234375 L 25.070312 22.183594 L 20.339844 17.453125 C 20.085938 17.199219 19.675781 17.199219 19.421875 17.453125 L 14.695312 22.179688 C 14.839844 18.011719 18.273438 14.667969 22.476562 14.667969 C 25.128906 14.667969 27.59375 16.023438 29.019531 18.234375 Z M 40.644531 13.75 L 39.480469 12.585938 C 39.226562 12.332031 38.816406 12.332031 38.5625 12.585938 L 25.070312 26.078125 L 20.339844 21.347656 C 20.085938 21.09375 19.675781 21.09375 19.421875 21.347656 L 15.296875 25.46875 C 15.085938 24.96875 14.925781 24.4375 14.824219 23.886719 L 19.878906 18.828125 L 24.613281 23.5625 C 24.867188 23.816406 25.277344 23.816406 25.53125 23.5625 L 37.535156 11.558594 C 37.789062 11.304688 37.789062 10.894531 37.535156 10.640625 L 36.371094 9.476562 L 40.644531 9.476562 Z M 40.644531 13.75 "/></g></g></svg>