<svg xmlns="http://www.w3.org/2000/svg" xmlns:xlink="http://www.w3.org/1999/xlink" width="60" zoomAndPan="magnify" viewBox="0 0 45 44.999999" height="60" preserveAspectRatio="xMidYMid meet" version="1.2"><defs><clipPath id="ff1675157a"><path d="M 4.5 4.5 L 42 4.5 L 42 42 L 4.5 42 Z M 4.5 4.5 "/></clipPath></defs><g id="7c8aac080b"><g clip-rule="nonzero" clip-path="url(#ff1675157a)"><path style=" stroke:none;fill-rule:nonzero;fill:#2262ee;fill-opacity:1;" d="M 36.445312 28.164062 C 32.910156 24.628906 28.210938 22.683594 23.214844 22.683594 C 18.214844 22.683594 13.515625 24.628906 9.980469 28.164062 C 6.445312 31.699219 4.496094 36.402344 4.496094 41.398438 C 4.496094 41.691406 4.734375 41.929688 5.027344 41.929688 L 41.398438 41.929688 C 41.691406 41.929688 41.925781 41.691406 41.925781 41.398438 C 41.925781 36.402344 39.980469 31.699219 36.445312 28.164062 Z M 36.5625 29.859375 C 35.171875 30.382812 33.667969 30.820312 32.078125 31.164062 C 31.703125 30.140625 31.265625 29.175781 30.773438 28.285156 C 29.828125 26.570312 28.726562 25.21875 27.519531 24.277344 C 31.085938 25.171875 34.226562 27.160156 36.5625 29.859375 Z M 22.683594 32.078125 C 20.179688 32.050781 17.714844 31.808594 15.402344 31.375 C 15.746094 30.460938 16.140625 29.597656 16.582031 28.796875 C 18.25 25.773438 20.398438 24.011719 22.683594 23.773438 Z M 22.683594 33.140625 L 22.683594 40.867188 L 13.710938 40.867188 C 13.761719 37.839844 14.222656 34.941406 15.046875 32.390625 C 17.472656 32.851562 20.058594 33.109375 22.683594 33.140625 Z M 23.742188 33.140625 C 26.371094 33.109375 28.953125 32.851562 31.378906 32.390625 C 32.203125 34.941406 32.667969 37.839844 32.714844 40.867188 L 23.742188 40.867188 Z M 23.742188 32.078125 L 23.742188 23.773438 C 26.027344 24.011719 28.175781 25.773438 29.847656 28.796875 C 30.289062 29.597656 30.679688 30.460938 31.023438 31.375 C 28.710938 31.808594 26.25 32.050781 23.742188 32.078125 Z M 18.910156 24.277344 C 17.703125 25.21875 16.597656 26.570312 15.652344 28.285156 C 15.160156 29.175781 14.726562 30.140625 14.347656 31.164062 C 12.761719 30.820312 11.253906 30.382812 9.863281 29.859375 C 12.203125 27.160156 15.339844 25.171875 18.910156 24.277344 Z M 9.160156 30.726562 C 10.652344 31.308594 12.28125 31.792969 14.003906 32.171875 C 13.167969 34.804688 12.699219 37.773438 12.652344 40.867188 L 5.566406 40.867188 C 5.679688 37.066406 7.003906 33.5625 9.160156 30.726562 Z M 33.777344 40.867188 C 33.726562 37.773438 33.261719 34.804688 32.421875 32.171875 C 34.144531 31.796875 35.773438 31.3125 37.265625 30.726562 C 39.421875 33.5625 40.746094 37.066406 40.859375 40.867188 Z M 29.238281 11.835938 C 29.238281 11.542969 29.476562 11.308594 29.769531 11.308594 L 35.390625 11.308594 C 35.683594 11.308594 35.921875 11.542969 35.921875 11.835938 C 35.921875 12.128906 35.683594 12.367188 35.390625 12.367188 L 29.769531 12.367188 C 29.476562 12.367188 29.238281 12.128906 29.238281 11.835938 Z M 29.238281 15.109375 C 29.238281 14.816406 29.476562 14.582031 29.769531 14.582031 L 35.390625 14.582031 C 35.683594 14.582031 35.921875 14.816406 35.921875 15.109375 C 35.921875 15.402344 35.683594 15.640625 35.390625 15.640625 L 29.769531 15.640625 C 29.476562 15.640625 29.238281 15.402344 29.238281 15.109375 Z M 12.90625 15.640625 L 13.277344 15.640625 L 12.183594 19.109375 C 12.070312 19.453125 12.191406 19.832031 12.480469 20.050781 C 12.632812 20.167969 12.8125 20.226562 12.996094 20.226562 C 13.15625 20.226562 13.316406 20.179688 13.457031 20.089844 L 20.433594 15.640625 L 22.316406 15.640625 L 22.316406 17.539062 C 22.316406 18.367188 22.988281 19.042969 23.816406 19.042969 L 29.949219 19.042969 L 36.921875 23.492188 C 37.0625 23.582031 37.226562 23.628906 37.386719 23.628906 C 37.570312 23.628906 37.753906 23.570312 37.90625 23.449219 C 38.191406 23.230469 38.308594 22.867188 38.199219 22.515625 L 37.101562 19.042969 L 37.480469 19.042969 C 37.886719 19.042969 38.253906 18.890625 38.542969 18.601562 C 38.832031 18.3125 38.984375 17.941406 38.980469 17.535156 L 38.953125 9.398438 C 38.949219 8.574219 38.273438 7.902344 37.449219 7.902344 L 28.066406 7.902344 L 28.066406 6.003906 C 28.066406 5.175781 27.394531 4.5 26.5625 4.5 L 12.933594 4.5 C 12.105469 4.5 11.429688 5.171875 11.429688 5.996094 L 11.402344 14.132812 C 11.402344 14.542969 11.550781 14.910156 11.835938 15.195312 C 12.125 15.488281 12.496094 15.640625 12.90625 15.640625 Z M 37.449219 8.964844 C 37.691406 8.964844 37.890625 9.160156 37.890625 9.402344 L 37.917969 17.542969 C 37.921875 17.667969 37.882812 17.761719 37.792969 17.851562 C 37.703125 17.941406 37.605469 17.980469 37.480469 17.980469 L 36.378906 17.980469 C 36.210938 17.980469 36.050781 18.0625 35.953125 18.199219 C 35.851562 18.335938 35.824219 18.511719 35.875 18.671875 L 37.015625 22.292969 L 30.390625 18.066406 C 30.304688 18.011719 30.207031 17.980469 30.105469 17.980469 L 23.816406 17.980469 C 23.574219 17.980469 23.375 17.785156 23.375 17.539062 L 23.375 15.640625 L 26.5625 15.640625 C 27.394531 15.640625 28.066406 14.96875 28.066406 14.136719 L 28.066406 8.964844 Z M 12.492188 6 C 12.492188 5.757812 12.6875 5.5625 12.933594 5.5625 L 26.5625 5.5625 C 26.808594 5.5625 27.007812 5.757812 27.007812 6.003906 L 27.007812 14.136719 C 27.007812 14.378906 26.804688 14.582031 26.5625 14.582031 L 20.277344 14.582031 C 20.175781 14.582031 20.078125 14.609375 19.992188 14.664062 L 13.367188 18.890625 L 14.507812 15.269531 C 14.558594 15.109375 14.53125 14.933594 14.429688 14.796875 C 14.328125 14.660156 14.171875 14.582031 14 14.582031 L 12.90625 14.582031 C 12.777344 14.582031 12.679688 14.539062 12.589844 14.449219 C 12.5 14.359375 12.460938 14.261719 12.460938 14.136719 Z M 14.460938 8.433594 C 14.460938 8.140625 14.695312 7.902344 14.988281 7.902344 L 24.480469 7.902344 C 24.773438 7.902344 25.007812 8.140625 25.007812 8.433594 C 25.007812 8.726562 24.773438 8.964844 24.480469 8.964844 L 14.988281 8.964844 C 14.695312 8.964844 14.460938 8.726562 14.460938 8.433594 Z M 14.460938 11.707031 C 14.460938 11.414062 14.695312 11.175781 14.988281 11.175781 L 24.480469 11.175781 C 24.773438 11.175781 25.007812 11.414062 25.007812 11.707031 C 25.007812 12 24.773438 12.238281 24.480469 12.238281 L 14.988281 12.238281 C 14.695312 12.238281 14.460938 12 14.460938 11.707031 Z M 14.460938 11.707031 "/></g></g></svg>