<svg width="80" height="80" viewBox="0 0 80 80" fill="none" xmlns="http://www.w3.org/2000/svg">
<path d="M57.5 17.5C58.8261 17.5 60.0979 18.0268 61.0355 18.9645C61.9732 19.9021 62.5 21.1739 62.5 22.5V57.5C62.5 58.8261 61.9732 60.0979 61.0355 61.0355C60.0979 61.9732 58.8261 62.5 57.5 62.5H22.5C21.1739 62.5 19.9021 61.9732 18.9645 61.0355C18.0268 60.0979 17.5 58.8261 17.5 57.5V22.5C17.5 21.1739 18.0268 19.9021 18.9645 18.9645C19.9021 18.0268 21.1739 17.5 22.5 17.5H57.5ZM56.25 56.25V43C56.25 40.8385 55.3913 38.7655 53.8629 37.2371C52.3345 35.7087 50.2615 34.85 48.1 34.85C45.975 34.85 43.5 36.15 42.3 38.1V35.325H35.325V56.25H42.3V43.925C42.3 42 43.85 40.425 45.775 40.425C46.7033 40.425 47.5935 40.7937 48.2499 41.4501C48.9063 42.1065 49.275 42.9967 49.275 43.925V56.25H56.25ZM27.2 31.4C28.3139 31.4 29.3822 30.9575 30.1698 30.1698C30.9575 29.3822 31.4 28.3139 31.4 27.2C31.4 24.875 29.525 22.975 27.2 22.975C26.0795 22.975 25.0048 23.4201 24.2125 24.2125C23.4201 25.0048 22.975 26.0795 22.975 27.2C22.975 29.525 24.875 31.4 27.2 31.4ZM30.675 56.25V35.325H23.75V56.25H30.675Z" fill="#2262EE"/>
<circle cx="40" cy="40" r="37.5" stroke="#2262EE" stroke-width="5"/>
</svg>
