<svg width="80" height="80" viewBox="0 0 80 80" fill="none" xmlns="http://www.w3.org/2000/svg">
<path d="M37 49L49.975 41.5L37 34V49ZM65.9 29.425C66.225 30.6 66.45 32.175 66.6 34.175C66.775 36.175 66.85 37.9 66.85 39.4L67 41.5C67 46.975 66.6 51 65.9 53.575C65.275 55.825 63.825 57.275 61.575 57.9C60.4 58.225 58.25 58.45 54.95 58.6C51.7 58.775 48.725 58.85 45.975 58.85L42 59C31.525 59 25 58.6 22.425 57.9C20.175 57.275 18.725 55.825 18.1 53.575C17.775 52.4 17.55 50.825 17.4 48.825C17.225 46.825 17.15 45.1 17.15 43.6L17 41.5C17 36.025 17.4 32 18.1 29.425C18.725 27.175 20.175 25.725 22.425 25.1C23.6 24.775 25.75 24.55 29.05 24.4C32.3 24.225 35.275 24.15 38.025 24.15L42 24C52.475 24 59 24.4 61.575 25.1C63.825 25.725 65.275 27.175 65.9 29.425Z" fill="#2262EE"/>
<circle cx="40" cy="40" r="37.5" stroke="#2262EE" stroke-width="5"/>
</svg>
